<svg version="1.1" xmlns="http://www.w3.org/2000/svg" viewBox="0 0 538.267578125 278.05859375" width="1076.53515625" height="556.1171875">
  <!-- svg-source:excalidraw -->
  
  <defs>
    <style class="style-fonts">
      @font-face {
        font-family: "Virgil";
        src: url("https://excalidraw.com/Virgil.woff2");
      }
      @font-face {
        font-family: "Cascadia";
        src: url("https://excalidraw.com/Cascadia.woff2");
      }
    </style>
    
  </defs>
  <rect x="0" y="0" width="538.267578125" height="278.05859375" fill="#ffffff"></rect><g stroke-linecap="round" transform="translate(10 156.33203125) rotate(0 80.376953125 55.86328125)"><path d="M27.93 0 C64.87 1.42, 100.75 2.32, 132.82 0 M27.93 0 C52.73 0.74, 78.79 0.93, 132.82 0 M132.82 0 C152.45 -1.38, 162.33 10.21, 160.75 27.93 M132.82 0 C150.98 0.24, 162.66 7.19, 160.75 27.93 M160.75 27.93 C160.11 45.94, 161.16 61.33, 160.75 83.79 M160.75 27.93 C160.5 45.56, 160.56 64.87, 160.75 83.79 M160.75 83.79 C161.47 104.25, 152.67 113, 132.82 111.73 M160.75 83.79 C159.21 103.97, 150.97 113.38, 132.82 111.73 M132.82 111.73 C95.51 110.69, 59.42 110.97, 27.93 111.73 M132.82 111.73 C102.47 111.27, 71.88 111.66, 27.93 111.73 M27.93 111.73 C10.34 109.96, 1.29 103.48, 0 83.79 M27.93 111.73 C10.76 111.78, 1.17 101.07, 0 83.79 M0 83.79 C0.54 69.14, 0.07 54.68, 0 27.93 M0 83.79 C-0.61 62.04, -0.08 40.03, 0 27.93 M0 27.93 C-1.68 9.78, 10.54 1.54, 27.93 0 M0 27.93 C-1.74 11.28, 10.62 -0.69, 27.93 0" stroke="#000000" stroke-width="1" fill="none"></path></g><g transform="translate(32.88700866699219 199.6953125) rotate(0 57.48994445800781 12.5)"><text x="57.48994445800781" y="0" font-family="Virgil, Segoe UI Emoji" font-size="20px" fill="#000000" text-anchor="middle" style="white-space: pre;" direction="ltr" dominant-baseline="text-before-edge">PullRequest</text></g><g stroke-linecap="round" transform="translate(13.2109375 10) rotate(0 79.4765625 36.962890625)"><path d="M18.48 0 C45.41 0.19, 77.24 1.72, 140.47 0 M18.48 0 C43.53 -0.06, 70.55 -0.23, 140.47 0 M140.47 0 C153.17 -0.05, 158.25 7.97, 158.95 18.48 M140.47 0 C152.09 0.63, 160.02 4.79, 158.95 18.48 M158.95 18.48 C157.61 24.98, 159.19 32.04, 158.95 55.44 M158.95 18.48 C157.71 29.33, 158.56 41.77, 158.95 55.44 M158.95 55.44 C158.94 69.76, 153.81 72.24, 140.47 73.93 M158.95 55.44 C160.91 68.16, 152.33 73.55, 140.47 73.93 M140.47 73.93 C95.9 71.35, 48.81 73.05, 18.48 73.93 M140.47 73.93 C100.7 74.69, 58.96 73.02, 18.48 73.93 M18.48 73.93 C5.78 73.21, 1.27 67.42, 0 55.44 M18.48 73.93 C5.58 74.92, -0.45 68.93, 0 55.44 M0 55.44 C1.72 44.28, -1.73 36, 0 18.48 M0 55.44 C0.88 43.03, 0.97 30.86, 0 18.48 M0 18.48 C0.68 6.94, 7.77 -1.11, 18.48 0 M0 18.48 C2.25 5.94, 7.63 1.86, 18.48 0" stroke="#000000" stroke-width="1" fill="none"></path></g><g transform="translate(65.22753143310547 34.462890625) rotate(0 27.45996856689453 12.5)"><text x="27.45996856689453" y="0" font-family="Virgil, Segoe UI Emoji" font-size="20px" fill="#000000" text-anchor="middle" style="white-space: pre;" direction="ltr" dominant-baseline="text-before-edge">Issue</text></g><g stroke-linecap="round" transform="translate(263.494140625 156.3046875) rotate(0 132.38671875 55.86328125)"><path d="M27.93 0 C77.51 -1.31, 130.35 -0.84, 236.84 0 M27.93 0 C77.88 0.46, 129.17 1.08, 236.84 0 M236.84 0 C256.11 1.85, 263.79 7.44, 264.77 27.93 M236.84 0 C253.48 2.2, 264.22 9.33, 264.77 27.93 M264.77 27.93 C262.98 41.84, 265.95 59.25, 264.77 83.79 M264.77 27.93 C264.61 41.24, 264.56 53.64, 264.77 83.79 M264.77 83.79 C265.81 103.95, 256.63 113.13, 236.84 111.73 M264.77 83.79 C264.33 104.31, 256.32 111.81, 236.84 111.73 M236.84 111.73 C173.06 111.59, 106.06 110.67, 27.93 111.73 M236.84 111.73 C174.75 113.68, 114.13 113.28, 27.93 111.73 M27.93 111.73 C10.57 109.97, -0.02 104.39, 0 83.79 M27.93 111.73 C8.01 110.9, 0.08 102.94, 0 83.79 M0 83.79 C0.88 65.39, -1.62 48.41, 0 27.93 M0 83.79 C-0.55 68.7, 0.9 54.4, 0 27.93 M0 27.93 C-1.86 9.83, 7.74 -1.52, 27.93 0 M0 27.93 C0.76 9.38, 8.42 1.75, 27.93 0" stroke="#000000" stroke-width="1" fill="none"></path></g><g transform="translate(285.2109680175781 199.66796875) rotate(0 110.66989135742188 12.5)"><text x="110.66989135742188" y="0" font-family="Virgil, Segoe UI Emoji" font-size="20px" fill="#000000" text-anchor="middle" style="white-space: pre;" direction="ltr" dominant-baseline="text-before-edge">PullRequestDeployment</text></g><g stroke-linecap="round"><g transform="translate(92.61328125 84.09765625) rotate(0 -0.3202301689777869 37.43391953635495)"><path d="M-0.07 -0.05 C-0.22 12.46, -0.73 62.43, -0.81 74.94 M0.17 -0.2 C0.06 12.33, -0.41 62.52, -0.54 75.07" stroke="#000000" stroke-width="1" fill="none"></path></g></g><mask></mask><g stroke-linecap="round"><g transform="translate(171.24609375 211.671875) rotate(0 46.18338954238959 0.5186116309689908)"><path d="M0.08 -0.04 C15.45 0.16, 76.77 0.89, 92.16 1.1 M-0.05 -0.19 C15.36 0.04, 77.02 0.97, 92.42 1.22" stroke="#000000" stroke-width="1" fill="none"></path></g></g><mask></mask><g transform="translate(101.7578125 89.98046875) rotate(0 2.167999267578125 10)"><text x="0" y="0" font-family="Virgil, Segoe UI Emoji" font-size="16px" fill="#000000" text-anchor="start" style="white-space: pre;" direction="ltr" dominant-baseline="text-before-edge">1</text></g><g transform="translate(99 137.46875) rotate(0 14.015983581542969 10)"><text x="0" y="0" font-family="Virgil, Segoe UI Emoji" font-size="16px" fill="#000000" text-anchor="start" style="white-space: pre;" direction="ltr" dominant-baseline="text-before-edge">0..*</text></g><g transform="translate(178.08984375 189.41796875) rotate(0 2.167999267578125 10)"><text x="0" y="0" font-family="Virgil, Segoe UI Emoji" font-size="16px" fill="#000000" text-anchor="start" style="white-space: pre;" direction="ltr" dominant-baseline="text-before-edge">1</text></g><g transform="translate(227.49609375 189.51171875) rotate(0 14.015983581542969 10)"><text x="0" y="0" font-family="Virgil, Segoe UI Emoji" font-size="16px" fill="#000000" text-anchor="start" style="white-space: pre;" direction="ltr" dominant-baseline="text-before-edge">0..*</text></g></svg>